<mxfile host="65bd71144e">
    <diagram id="m7PbGwZEUim1MmgQ9Za8" name="Page-1">
        <mxGraphModel dx="690" dy="515" grid="1" gridSize="10" guides="1" tooltips="1" connect="1" arrows="1" fold="1" page="1" pageScale="1" pageWidth="1654" pageHeight="1169" background="#ffffff" math="0" shadow="0">
            <root>
                <mxCell id="0"/>
                <mxCell id="1" parent="0"/>
                <mxCell id="2" value="AWS Cloud" style="sketch=0;outlineConnect=0;gradientColor=none;html=1;whiteSpace=wrap;fontSize=12;fontStyle=0;shape=mxgraph.aws4.group;grIcon=mxgraph.aws4.group_aws_cloud;strokeColor=#AAB7B8;fillColor=none;verticalAlign=top;align=left;spacingLeft=30;fontColor=#AAB7B8;dashed=0;" parent="1" vertex="1">
                    <mxGeometry x="160" y="80" width="640" height="240" as="geometry"/>
                </mxCell>
                <mxCell id="7" style="edgeStyle=none;html=1;entryX=0;entryY=0.5;entryDx=0;entryDy=0;entryPerimeter=0;strokeColor=#000000;" parent="1" source="3" target="4" edge="1">
                    <mxGeometry relative="1" as="geometry"/>
                </mxCell>
                <mxCell id="3" value="" style="sketch=0;points=[[0,0,0],[0.25,0,0],[0.5,0,0],[0.75,0,0],[1,0,0],[0,1,0],[0.25,1,0],[0.5,1,0],[0.75,1,0],[1,1,0],[0,0.25,0],[0,0.5,0],[0,0.75,0],[1,0.25,0],[1,0.5,0],[1,0.75,0]];outlineConnect=0;fontColor=#232F3E;gradientColor=#60A337;gradientDirection=north;fillColor=#277116;strokeColor=#ffffff;dashed=0;verticalLabelPosition=bottom;verticalAlign=top;align=center;html=1;fontSize=12;fontStyle=0;aspect=fixed;shape=mxgraph.aws4.resourceIcon;resIcon=mxgraph.aws4.s3;" parent="1" vertex="1">
                    <mxGeometry x="200" y="161" width="78" height="78" as="geometry"/>
                </mxCell>
                <mxCell id="8" style="edgeStyle=none;html=1;entryX=0;entryY=0.5;entryDx=0;entryDy=0;entryPerimeter=0;strokeColor=#000000;" parent="1" source="4" target="5" edge="1">
                    <mxGeometry relative="1" as="geometry"/>
                </mxCell>
                <mxCell id="4" value="" style="sketch=0;points=[[0,0,0],[0.25,0,0],[0.5,0,0],[0.75,0,0],[1,0,0],[0,1,0],[0.25,1,0],[0.5,1,0],[0.75,1,0],[1,1,0],[0,0.25,0],[0,0.5,0],[0,0.75,0],[1,0.25,0],[1,0.5,0],[1,0.75,0]];outlineConnect=0;fontColor=#232F3E;gradientColor=#945DF2;gradientDirection=north;fillColor=#5A30B5;strokeColor=#ffffff;dashed=0;verticalLabelPosition=bottom;verticalAlign=top;align=center;html=1;fontSize=12;fontStyle=0;aspect=fixed;shape=mxgraph.aws4.resourceIcon;resIcon=mxgraph.aws4.glue;" parent="1" vertex="1">
                    <mxGeometry x="360" y="161" width="78" height="78" as="geometry"/>
                </mxCell>
                <mxCell id="9" value="" style="edgeStyle=none;html=1;strokeColor=#000000;" parent="1" source="5" target="6" edge="1">
                    <mxGeometry relative="1" as="geometry"/>
                </mxCell>
                <mxCell id="5" value="" style="sketch=0;points=[[0,0,0],[0.25,0,0],[0.5,0,0],[0.75,0,0],[1,0,0],[0,1,0],[0.25,1,0],[0.5,1,0],[0.75,1,0],[1,1,0],[0,0.25,0],[0,0.5,0],[0,0.75,0],[1,0.25,0],[1,0.5,0],[1,0.75,0]];outlineConnect=0;fontColor=#232F3E;gradientColor=#945DF2;gradientDirection=north;fillColor=#5A30B5;strokeColor=#ffffff;dashed=0;verticalLabelPosition=bottom;verticalAlign=top;align=center;html=1;fontSize=12;fontStyle=0;aspect=fixed;shape=mxgraph.aws4.resourceIcon;resIcon=mxgraph.aws4.athena;" parent="1" vertex="1">
                    <mxGeometry x="520" y="161" width="78" height="78" as="geometry"/>
                </mxCell>
                <mxCell id="6" value="" style="sketch=0;points=[[0,0,0],[0.25,0,0],[0.5,0,0],[0.75,0,0],[1,0,0],[0,1,0],[0.25,1,0],[0.5,1,0],[0.75,1,0],[1,1,0],[0,0.25,0],[0,0.5,0],[0,0.75,0],[1,0.25,0],[1,0.5,0],[1,0.75,0]];outlineConnect=0;fontColor=#232F3E;gradientColor=#60A337;gradientDirection=north;fillColor=#277116;strokeColor=#ffffff;dashed=0;verticalLabelPosition=bottom;verticalAlign=top;align=center;html=1;fontSize=12;fontStyle=0;aspect=fixed;shape=mxgraph.aws4.resourceIcon;resIcon=mxgraph.aws4.s3;" parent="1" vertex="1">
                    <mxGeometry x="680" y="161" width="78" height="78" as="geometry"/>
                </mxCell>
                <mxCell id="10" value="&lt;font color=&quot;#050505&quot;&gt;S3&lt;/font&gt;" style="text;html=1;align=center;verticalAlign=middle;resizable=0;points=[];autosize=1;strokeColor=none;fillColor=none;" parent="1" vertex="1">
                    <mxGeometry x="219" y="239" width="40" height="30" as="geometry"/>
                </mxCell>
                <mxCell id="11" value="&lt;font color=&quot;#050505&quot;&gt;S3&lt;/font&gt;" style="text;html=1;align=center;verticalAlign=middle;resizable=0;points=[];autosize=1;strokeColor=none;fillColor=none;" parent="1" vertex="1">
                    <mxGeometry x="699" y="239" width="40" height="30" as="geometry"/>
                </mxCell>
                <mxCell id="12" value="Glue Data catalog" style="text;html=1;align=center;verticalAlign=middle;resizable=0;points=[];autosize=1;strokeColor=none;fillColor=none;fontColor=#050505;" parent="1" vertex="1">
                    <mxGeometry x="339" y="239" width="120" height="30" as="geometry"/>
                </mxCell>
                <mxCell id="13" value="Athena" style="text;html=1;align=center;verticalAlign=middle;resizable=0;points=[];autosize=1;strokeColor=none;fillColor=none;fontColor=#050505;" parent="1" vertex="1">
                    <mxGeometry x="529" y="239" width="60" height="30" as="geometry"/>
                </mxCell>
            </root>
        </mxGraphModel>
    </diagram>
</mxfile>
